<svg width="1280" height="420" viewBox="0 0 1280 420" fill="none" xmlns="http://www.w3.org/2000/svg" role="img" aria-label="Canary Metric Lint cover">

  <defs>
    <linearGradient id="g" x1="0" x2="1" y1="0" y2="1">
      <stop offset="0" stop-color="#a78bfa" stop-opacity=".34"/>
      <stop offset=".54" stop-color="#1d102b" stop-opacity="0"/>
      <stop offset="1" stop-color="#f472b6" stop-opacity=".30"/>
    </linearGradient>
    <filter id="grain" x="-20%" y="-20%" width="140%" height="140%">
      <feTurbulence type="fractalNoise" baseFrequency=".85" numOctaves="2" seed="34" result="noise"/>
      <feColorMatrix type="saturate" values="0"/>
      <feComponentTransfer><feFuncA type="table" tableValues="0 .10"/></feComponentTransfer>
      <feBlend mode="soft-light" in2="SourceGraphic"/>
    </filter>
  </defs>
  <rect width="1280" height="420" rx="30" fill="#1d102b"/>
  <rect width="1280" height="420" rx="30" fill="url(#g)" filter="url(#grain)"/>

  <rect x="82" y="74" width="300" height="272" rx="30" fill="#a78bfa" opacity=".18"/>
  <path d="M132 142h168M132 202h108M132 262h202" stroke="#faf5ff" stroke-width="15" stroke-linecap="round"/>
  <text x="446" y="184" fill="#faf5ff" font-family="Inter, ui-sans-serif, system-ui" font-size="60" font-weight="850">Canary Metric Lint</text>
  <text x="450" y="242" fill="#e9d5ff" font-family="Inter, ui-sans-serif, system-ui" font-size="23">Check canary rollout plans for metric, threshold,...</text>
  <rect x="450" y="278" width="360" height="44" rx="22" fill="#f472b6" opacity=".18"/>
  <text x="470" y="307" fill="#faf5ff" font-family="ui-monospace, SFMono-Regular, Menlo, monospace" font-size="16" font-weight="800">DELIVERY</text>
  <rect x="846" y="122" width="152" height="28" rx="8" fill="#a78bfa" opacity=".85"/>
  <text x="862" y="141" fill="#faf5ff" font-family="ui-monospace, SFMono-Regular, Menlo, monospace" font-size="13">missing-metric</text>
  <rect x="846" y="176" width="228" height="28" rx="8" fill="#f472b6" opacity=".85"/>
  <text x="862" y="195" fill="#faf5ff" font-family="ui-monospace, SFMono-Regular, Menlo, monospace" font-size="13">missing-threshold</text>
  <rect x="846" y="230" width="270" height="28" rx="8" fill="#a78bfa" opacity=".85"/>
  <text x="862" y="249" fill="#faf5ff" font-family="ui-monospace, SFMono-Regular, Menlo, monospace" font-size="13">unknown-rollback</text>
</svg>
